<svg t="1728125559007" class="icon" viewBox="0 0 1024 1024" version="1.1" xmlns="http://www.w3.org/2000/svg" p-id="21672" width="200" height="200"><path d="M51.2 512c0 254.49472 206.30528 460.8 460.8 460.8s460.8-206.30528 460.8-460.8-206.30528-460.8-460.8-460.8-460.8 206.30528-460.8 460.8z" fill="#2AC6C3" p-id="21673"></path><path d="M572.27776 540.22144c-49.95072-21.45792-74.2144-34.99008-126.3104-69.47328-36.1472-23.88992-138.47552-76.65664-37.16608-104.1152 19.79904-5.376 64.82432-15.17568 147.86048-23.60832 26.1376-2.6624 77.21472-30.80192 23.08608-51.9168-10.752-4.19328-27.71968-24.23296 42.88-30.23872 17.18784-1.46944 46.88896-34.816-9.90208-22.70208-56.79616 12.11904-25.11872 12.11904-56.1152 15.11936-31.0528 3.05664-106.23488 21.22752-72.63744 30.28992 33.60256 9.0624 95.03744 16.64512 46.21824 30.2336-11.83232 3.28704-97.3568 9.79456-155.05408 23.72096-44.51328 10.7008-126.70976 60.52352-79.24736 142.67904 20.5312 35.55328 109.11744 90.35776 125.80352 103.72608 78.62784 63.12448 113.75616 158.4128 113.3568 158.46912L788.48 741.888s-25.56928-50.45248-38.29248-69.5808c-20.36736-30.57664-43.89376-52.37248-70.88128-70.21056-66.80064-44.15488-81.96608-51.11808-107.02848-61.8752z" fill="#FFFFFF" p-id="21674"></path></svg>